<?xml version="1.0" encoding="UTF-8"?>
<svg version="1.1" xmlns="http://www.w3.org/2000/svg" width="225" height="225">
<path d="M0 0 C3.63 0.66 7.26 1.32 11 2 C36.12154276 5.83933012 61.80790275 4.44098146 87 2 C87.17332439 4.9372294 87.33860131 7.87460758 87.5 10.8125 C87.57154297 12.00456055 87.57154297 12.00456055 87.64453125 13.22070312 C88.51006976 29.35681399 87.95313833 45.54634779 87.5 61.6875 C87.45158988 63.47981143 87.40341191 65.27212914 87.35546875 67.06445312 C87.2396379 71.37637878 87.1207263 75.68820875 87 80 C73.10520025 82.68931608 59.49429159 83.33279512 45.375 83.375 C44.51270782 83.38249268 43.65041565 83.38998535 42.76199341 83.39770508 C28.21610972 83.50116945 13.87805258 82.62601753 0 78 C0 52.26 0 26.52 0 0 Z " fill="#F8F8F8" transform="translate(52,142)"/>
<path d="M0 0 C-3.07577854 3.09736296 -6.16328537 6.16836739 -9.375 9.125 C-10.43847656 10.11886719 -10.43847656 10.11886719 -11.5234375 11.1328125 C-17.1473896 15.37295304 -22.85082724 16.44197308 -29.625 17.25 C-48.13047287 19.87460499 -68.81036085 25.85773564 -80.796875 41.234375 C-83.71615283 45.51851 -84.5050932 48.63161546 -83.671875 53.87890625 C-81.78037032 59.85034254 -77.02412739 64.49479484 -72 68 C-71.4225 68.44859375 -70.845 68.8971875 -70.25 69.359375 C-43.130497 89.28810069 -0.59443626 88.10824792 31.1875 83.5 C46.14936316 80.97639717 63.24859435 76.47668932 73 64 C76.58225341 58.44655953 77.73829132 53.53915171 77 47 C76.17482301 44.51975372 75.17443004 42.34886007 74 40 C66.70651979 41.96684043 59.4376725 44.004248 52.1875 46.125 C51.18501221 46.41777832 50.18252441 46.71055664 49.1496582 47.01220703 C40.31871173 49.59900248 31.50149864 52.2311593 22.6875 54.875 C22.02430756 55.07385803 21.36111511 55.27271606 20.67782593 55.4776001 C13.31565237 57.6648554 13.31565237 57.6648554 6 60 C4.60560336 60.06665376 3.20830125 60.08538199 1.8125 60.0625 C0.554375 60.041875 -0.70375 60.02125 -2 60 C-2 58.35 -2 56.7 -2 55 C3.99286225 52.49683887 10.05475063 50.25545448 16.1875 48.125 C21.7284018 46.19860642 27.19660928 44.16100551 32.625 41.9375 C38.61354075 39.49255795 44.67536484 37.40335975 50.82421875 35.3984375 C55.71136755 33.78400707 60.54156646 32.01762874 65.375 30.25 C66.29619629 29.91331299 67.21739258 29.57662598 68.16650391 29.22973633 C70.09919746 28.52299526 72.03181268 27.81603995 73.96435547 27.10888672 C83.29561437 23.70028306 92.64146759 20.33295102 102 17 C102.81275391 16.70899414 103.62550781 16.41798828 104.46289062 16.11816406 C106.53419202 15.38047738 108.60944975 14.65591394 110.6875 13.9375 C112.33298828 13.36322266 112.33298828 13.36322266 114.01171875 12.77734375 C117.1574743 11.9590361 119.7637484 11.77248733 123 12 C124.875 13.125 124.875 13.125 126 15 C126.375 18 126.375 18 126 21 C123.91167278 23.62745991 121.85611425 24.6407011 118.71875 25.71875 C117.88142334 26.00999756 117.04409668 26.30124512 116.18139648 26.60131836 C115.29653564 26.8978833 114.4116748 27.19444824 113.5 27.5 C112.60031494 27.80752197 111.70062988 28.11504395 110.77368164 28.43188477 C94.31278326 34 94.31278326 34 89 34 C89.45052734 35.30710937 89.45052734 35.30710937 89.91015625 36.640625 C93.35714011 47.43727953 94.15269725 56.95552657 89.41015625 67.5625 C80.23591072 83.42047565 63.88603473 91.07788228 47 96 C39.74340224 97.76537716 32.39635416 98.9919188 25 100 C24.32138916 100.10094971 23.64277832 100.20189941 22.94360352 100.3059082 C15.15588925 101.34049672 7.2806735 101.28705513 -0.5625 101.3125 C-1.33467865 101.31511841 -2.1068573 101.31773682 -2.9024353 101.32043457 C-16.58350663 101.32538399 -29.63856719 100.08930118 -43 97 C-44.03906494 96.76772705 -44.03906494 96.76772705 -45.09912109 96.53076172 C-58.72512103 93.38951129 -72.04619778 87.74330519 -83 79 C-83.70511719 78.48050781 -84.41023438 77.96101563 -85.13671875 77.42578125 C-91.64434938 72.30644515 -97.60249943 64.33509269 -99 56 C-99.97063787 46.03902778 -97.72581406 38.45271965 -91.875 30.375 C-75.65126982 10.89967833 -48.68340964 3.0690707 -24.38671875 0.421875 C-16.26239776 -0.30580858 -8.14559673 -0.25396202 0 0 Z " fill="#E6E6E6" transform="translate(99,34)"/>
<path d="M0 0 C0.66 0 1.32 0 2 0 C2.37125 1.155 2.7425 2.31 3.125 3.5 C8.83663572 18.4765932 22.45281849 25.77483653 36 33 C36 58.74 36 84.48 36 111 C22.05089791 106.3502993 10.52132857 98.07162571 2.625 85.4375 C-0.13892959 79.59072588 -0.12429524 73.70707801 -0.11352539 67.32055664 C-0.11367142 66.58801666 -0.11381744 65.85547668 -0.1139679 65.10073853 C-0.11327686 62.70384657 -0.10552276 60.30703446 -0.09765625 57.91015625 C-0.09578919 56.23864281 -0.09436665 54.56712881 -0.09336853 52.89561462 C-0.08956603 48.51445991 -0.07975529 44.13333879 -0.06866455 39.75219727 C-0.0584015 35.27425592 -0.05386046 30.79630911 -0.04882812 26.31835938 C-0.03813083 17.54555757 -0.02108187 8.77278297 0 0 Z " fill="#F0F0F0" transform="translate(0,103)"/>
<path d="M0 0 C0.99 0 1.98 0 3 0 C3.04655098 9.06725514 3.08198402 18.13446849 3.10362434 27.20181751 C3.11401597 31.41315272 3.12808966 35.62440555 3.15087891 39.83569336 C3.17277349 43.90761297 3.18460328 47.97945386 3.18975449 52.05142784 C3.19342066 53.5969841 3.20057884 55.14253655 3.21146011 56.68805885 C3.30765087 70.93024321 2.95050342 85.2976796 -7.25390625 96.31640625 C-13.75979645 102.58942342 -23.58555309 111 -33 111 C-33 85.59 -33 60.18 -33 34 C-28.38 31.36 -23.76 28.72 -19 26 C-10.55341124 20.36894082 -2.49830841 12.86724687 -0.25 2.5625 C-0.1675 1.716875 -0.085 0.87125 0 0 Z " fill="#F6F6F6" transform="translate(189,105)"/>
<path d="M0 0 C2 1.0625 2 1.0625 3 3 C3 6.89568805 2.784656 9.13687841 0.125 12.0625 C-9.0547461 17.75394258 -18.8105046 22.5333789 -28.39453125 27.5 C-34.97500351 30.9193523 -41.50279845 34.42495446 -48 38 C-41.40754047 40.76037348 -34.81130826 43.49890427 -28.15625 46.10546875 C-26.04887745 46.97972294 -24.02696586 47.95426989 -22 49 C-22 49.66 -22 50.32 -22 51 C-24.17715959 52.21087517 -26.36337119 53.39275063 -28.5625 54.5625 C-29.17158203 54.90474609 -29.78066406 55.24699219 -30.40820312 55.59960938 C-36.35462438 58.71440146 -40.38602577 57.80346456 -46.76171875 55.84375 C-47.39916016 55.62549561 -48.03660156 55.40724121 -48.69335938 55.18237305 C-62.62509877 50.31832787 -62.62509877 50.31832787 -76.67089844 53.34692383 C-79.43225178 54.75467915 -82.14038327 56.24196076 -84.83544922 57.77246094 C-87.86076959 59.48815131 -90.91792682 61.14147023 -93.98364258 62.78369141 C-95.46718092 63.5798767 -96.94518459 64.38648347 -98.41674805 65.20458984 C-101.95315216 67.12860398 -103.89032548 68 -108 68 C-108.495 65.525 -108.495 65.525 -109 63 C-105.22447624 59.82512775 -101.24624386 57.23552587 -97 54.75 C-95.65197889 53.95113619 -94.30432859 53.15164637 -92.95703125 52.3515625 C-92.28752441 51.95485352 -91.61801758 51.55814453 -90.92822266 51.14941406 C-88.16436408 49.50187719 -85.42517824 47.81561198 -82.6875 46.125 C-71.23832379 39.05882131 -59.76247211 32.03931142 -48.20947266 25.14404297 C-43.60276555 22.3850192 -39.06646623 19.52871606 -34.5625 16.60546875 C-32.03558061 15.02229212 -29.46337881 13.5382268 -26.86914062 12.06860352 C-23.63398232 10.21903613 -20.44366481 8.29503897 -17.25 6.375 C-16.59128906 5.98054687 -15.93257813 5.58609375 -15.25390625 5.1796875 C-5.76902145 -0.5150912 -5.76902145 -0.5150912 0 0 Z " fill="#E2E2E2" transform="translate(188,0)"/>
<path d="M0 0 C0.99 0 1.98 0 3 0 C3.02322964 9.11908037 3.04096907 18.23815046 3.05181217 27.35725403 C3.05701783 31.59218394 3.06407316 35.82709351 3.07543945 40.06201172 C3.08635098 44.15336302 3.09229428 48.24469483 3.09487724 52.33605957 C3.09671665 53.89245917 3.10030842 55.44885778 3.10573006 57.00524902 C3.11305037 59.19492856 3.11398635 61.38452883 3.11352539 63.57421875 C3.115746 64.81776123 3.11796661 66.06130371 3.12025452 67.3425293 C2.99023169 71.29709738 2.54599263 75.08328082 2 79 C1.67 79 1.34 79 1 79 C0.98969254 78.1296965 0.97938507 77.25939301 0.96876526 76.36271667 C0.87084609 68.16669156 0.76833955 59.97073948 0.66066074 51.77483654 C0.60546249 47.56109924 0.55204741 43.34735496 0.50268555 39.13354492 C0.45499634 35.06809236 0.40265184 31.00272411 0.34705925 26.93737221 C0.32665636 25.38523771 0.30793986 23.83308011 0.29092598 22.28090477 C0.26683622 20.10930395 0.23678801 17.93786213 0.20532227 15.76635742 C0.18977798 14.52947678 0.1742337 13.29259613 0.15821838 12.01823425 C0.131703 8.95155636 0.131703 8.95155636 -1 6 C-0.72428861 3.99124558 -0.39764263 1.98821313 0 0 Z " fill="#7E7E7E" transform="translate(189,105)"/>
<path d="M0 0 C0.99 0 1.98 0 3 0 C2.67 7.92 2.34 15.84 2 24 C1.67 24 1.34 24 1 24 C0.93941406 22.95199219 0.87882813 21.90398437 0.81640625 20.82421875 C0.73198262 19.44529952 0.64733553 18.06639395 0.5625 16.6875 C0.52318359 15.99720703 0.48386719 15.30691406 0.44335938 14.59570312 C0.25072585 11.52838465 -0.02322717 8.93031848 -1 6 C-0.72428861 3.99124558 -0.39764263 1.98821313 0 0 Z " fill="#DCDCDC" transform="translate(189,105)"/>
<path d="M0 0 C0.99 0 1.98 0 3 0 C2.34 2.97 1.68 5.94 1 9 C0.34 8.67 -0.32 8.34 -1 8 C-0.67 5.36 -0.34 2.72 0 0 Z " fill="#8A8A8A" transform="translate(189,105)"/>
</svg>
